#!OML:ASF X:\für Bonn\!DataBase\2005_08_11_Bastian_Final\c3d\Bastian.ASF
:FULLY-SPECIFIED
:DEGREES
69
root 1.72578 17.8987 0.00978947 172.702 -6.98055 -176.532
lowerback 4.09895 -4.35491 2.30659
upperback 4.03613 -6.07219 1.66549
thorax 1.81473 -3.13284 0.572482
lowerneck 0.135122 -4.41974 -3.90456
upperneck -3.52118 -5.48391 9.73193
head -0.732144 -2.71434 3.87079
rclavicle 6.01448e-014 -1.51076e-014
rhumerus -36.4018 27.6974 -18.7552
rradius 34.1112
rwrist -73.0747
rhand -59.6431 -11.3481
rfingers 7.12502
rthumb -31.812 -38.5915
lclavicle 6.01448e-014 -1.51076e-014
lhumerus -402.624 -32.6354 383.56
lradius 22.8827
lwrist 41.8424
lhand -50.2402 29.9438
lfingers 7.12502
lthumb -22.8196 58.6139
rfemur 1.08893 4.02068 26.7914
rtibia 30.5291
rfoot -12.3467 -11.2234
rtoes -1.77902
lfemur 20.1943 -3.55508 -12.8964
ltibia 15.7267
lfoot -1.70356 2.74015
ltoes -34.9786
70
root 1.75093 17.8934 -0.00501136 172.597 -7.22783 -176.66
lowerback 4.36598 -4.32097 2.33373
upperback 4.15563 -6.0258 1.51131
thorax 1.77079 -3.11049 0.416836
lowerneck -1.06453 -4.60098 -3.67409
upperneck -3.59437 -5.68139 9.68216
head -0.536265 -2.77589 3.77178
rclavicle -2.63638e-014 2.5842e-014
rhumerus -39.0043 25.3469 -24.3963
rradius 33.2831
rwrist -72.2349
rhand -58.5495 -11.2082
rfingers 7.12502
rthumb -30.7699 -38.6533
lclavicle -2.63638e-014 2.5842e-014
lhumerus -404.796 -31.796 389.294
lradius 22.8457
lwrist 43.7122
lhand -50.3075 29.8638
lfingers 7.12502
lthumb -22.8842 58.5259
rfemur 1.32262 3.94337 26.7861
rtibia 30.4289
rfoot -12.346 -11.4344
rtoes -1.57016
lfemur 20.019 -3.41895 -12.8331
ltibia 16.2334
lfoot -1.70287 2.48029
ltoes -35.3894
71
root 1.77879 17.888 -0.0160094 172.456 -7.57054 -176.79
lowerback 4.68818 -4.32684 2.29765
upperback 4.26193 -6.03328 1.37341
thorax 1.69049 -3.11769 0.319366
lowerneck -2.13046 -4.77161 -3.45407
upperneck -3.75101 -5.8616 9.6224
head -0.394147 -2.83187 3.67757
rclavicle 5.45415e-014 -2.80286e-014
rhumerus -41.097 23.0675 -29.8827
rradius 32.4792
rwrist -71.9132
rhand -57.8574 -10.6917
rfingers 7.12502
rthumb -30.1098 -38.2591
lclavicle 5.45415e-014 -2.80286e-014
lhumerus -407.092 -31.2092 395.301
lradius 22.9863
lwrist 45.95
lhand -50.2701 29.395
lfingers 7.12502
lthumb -22.8484 58.0616
rfemur 1.58073 3.80952 26.7832
rtibia 30.3466
rfoot -12.3656 -11.7174
rtoes -1.59294
lfemur 19.836 -3.3231 -12.751
ltibia 16.765
lfoot -1.68103 2.15304
ltoes -35.8208
72
root 1.80725 17.8816 -0.0224165 172.3 -7.96712 -176.895
lowerback 4.93984 -4.34805 2.2704
upperback 4.41767 -6.07035 1.24167
thorax 1.70033 -3.14055 0.215476
lowerneck -3.07596 -4.9264 -3.26617
upperneck -4.01675 -6.01083 9.58809
head -0.309975 -2.87472 3.60458
rclavicle -8.8074e-014 2.98177e-014
rhumerus -42.2958 20.3158 -34.9479
rradius 31.2792
rwrist -71.492
rhand -57.2964 -10.0529
rfingers 7.12502
rthumb -29.5744 -37.7164
lclavicle -8.8074e-014 2.98177e-014
lhumerus -409.015 -30.4395 401.167
lradius 22.992
lwrist 48.047
lhand -49.9372 28.3202
lfingers 7.12502
lthumb -22.5288 57.0259
rfemur 1.83235 3.67388 26.8016
rtibia 30.275
rfoot -12.4209 -12.0215
rtoes -1.48486
lfemur 19.6346 -3.20554 -12.6165
ltibia 17.2714
lfoot -1.63365 1.77537
ltoes -36.2484
73
root 1.83636 17.8739 -0.0231434 172.131 -8.38426 -177.046
lowerback 5.09861 -4.38096 2.16129
upperback 4.62264 -6.13409 1.10103
thorax 1.81961 -3.17894 0.137195
lowerneck -3.79532 -5.06211 -3.05862
upperneck -4.41778 -6.12613 9.5386
head -0.313257 -2.90776 3.53242
rclavicle -5.21934e-014 9.93923e-016
rhumerus -42.6527 17.662 -39.7568
rradius 29.8165
rwrist -71.3934
rhand -56.9118 -9.67848
rfingers 7.12502
rthumb -29.2073 -37.4064
lclavicle -5.21934e-014 9.93923e-016
lhumerus -410.197 -28.9192 406.334
lradius 22.6167
lwrist 49.0343
lhand -49.0565 26.7661
lfingers 7.12502
lthumb -21.6833 55.5718
rfemur 2.06224 3.50731 26.7614
rtibia 30.2409
rfoot -12.4412 -12.3334
rtoes -1.47786
lfemur 19.4518 -3.09718 -12.5293
ltibia 17.7321
lfoot -1.53197 1.39524
ltoes -36.4983
74
root 1.86444 17.8701 -0.0189157 171.954 -8.74407 -177.174
lowerback 5.19937 -4.39301 2.0681
upperback 4.84592 -6.17509 0.979209
thorax 1.99104 -3.20657 0.0620733
lowerneck -4.21012 -5.18413 -2.94313
upperneck -5.01305 -6.20411 9.55181
head -0.429484 -2.93081 3.51267
rclavicle 5.41937e-014 -2.00773e-014
rhumerus -42.8645 16.564 -45.0662
rradius 28.778
rwrist -72.8564
rhand -56.9061 -9.93443
rfingers 7.12502
rthumb -29.2018 -37.6633
lclavicle 5.41937e-014 -2.00773e-014
lhumerus -410.487 -26.6172 410.711
lradius 21.7506
lwrist 48.7767
lhand -47.7621 24.9295
lfingers 7.12502
lthumb -20.4398 53.8737
rfemur 2.27427 3.37291 26.7332
rtibia 30.2249
rfoot -12.4402 -12.585
rtoes -1.41771
lfemur 19.2959 -2.98392 -12.4392
ltibia 18.1446
lfoot -1.46672 1.09195
ltoes -36.7033
75
root 1.88922 17.8681 -0.00669901 171.767 -8.97991 -177.318
lowerback 5.35321 -4.37604 1.99153
upperback 5.08856 -6.18094 0.861713
thorax 2.15269 -3.21866 -0.0155604
lowerneck -4.835 -5.30306 -2.79321
upperneck -5.46899 -6.28784 9.49165
head -0.468681 -2.94815 3.45242
rclavicle -1.68222e-014 1.59028e-015
rhumerus -42.9555 16.6582 -50.7593
rradius 28.267
rwrist -75.3377
rhand -57.043 -10.7459
rfingers 7.12502
rthumb -29.3325 -38.452
lclavicle -1.68222e-014 1.59028e-015
lhumerus -409.894 -23.647 414.352
lradius 20.4037
lwrist 47.3875
lhand -46.1472 23.2283
lfingers 7.12502
lthumb -18.8872 52.3314
rfemur 2.45777 3.30566 26.6653
rtibia 30.2345
rfoot -12.4617 -12.7399
rtoes -1.16978
lfemur 19.1781 -2.78398 -12.3882
ltibia 18.5116
lfoot -1.37387 0.835472
ltoes -36.9582
76
root 1.91149 17.8659 0.0113214 171.559 -9.08749 -177.448
lowerback 5.50184 -4.30226 1.97624
upperback 5.37752 -6.11696 0.731427
thorax 2.35929 -3.19609 -0.145682
lowerneck -5.65946 -5.43872 -2.59458
upperneck -5.82679 -6.39557 9.42936
head -0.443126 -2.9679 3.37409
rclavicle -3.9583e-014 8.15017e-015
rhumerus -42.66 17.0644 -56.3619
rradius 27.9809
rwrist -77.6712
rhand -56.9878 -12.114
rfingers 7.12502
rthumb -29.2799 -39.8293
lclavicle -3.9583e-014 8.15017e-015
lhumerus -409.045 -21.272 418.23
lradius 19.2415
lwrist 46.3957
lhand -44.7184 22.295
lfingers 7.12502
lthumb -17.5127 51.5262
rfemur 2.64656 3.25632 26.5757
rtibia 30.2233
rfoot -12.4834 -12.7151
rtoes -1.02656
lfemur 19.1199 -2.56491 -12.3607
ltibia 18.8417
lfoot -1.34143 0.683479
ltoes -37.1109
77
root 1.93252 17.8636 0.0317928 171.322 -9.13085 -177.552
lowerback 5.59735 -4.22194 1.97174
upperback 5.75722 -6.06163 0.622646
thorax 2.69225 -3.18177 -0.269887
lowerneck -6.68471 -5.56366 -2.33699
upperneck -6.12277 -6.49239 9.2967
head -0.370341 -2.97382 3.25453
rclavicle -1.10947e-014 4.07509e-015
rhumerus -41.8781 17.9761 -61.8045
rradius 27.9443
rwrist -79.792
rhand -56.6414 -13.8075
rfingers 7.12502
rthumb -28.949 -41.58
lclavicle -1.10947e-014 4.07509e-015
lhumerus -408.422 -20.357 423.126
lradius 18.8221
lwrist 47.0493
lhand -43.7873 22.4911
lfingers 7.12502
lthumb -16.6164 51.7998
rfemur 2.86153 3.16288 26.4839
rtibia 30.2049
rfoot -12.6335 -12.5935
rtoes -0.361006
lfemur 19.093 -2.26813 -12.2894
ltibia 19.1745
lfoot -1.34446 0.511141
ltoes -37.379
78
root 1.95301 17.8586 0.0567453 171.031 -9.13508 -177.701
lowerback 5.72522 -4.11369 1.92139
upperback 6.2059 -5.98368 0.49849
thorax 3.08402 -3.16177 -0.387093
lowerneck -7.82239 -5.6814 -2.04603
upperneck -6.33392 -6.58714 9.14492
head -0.255551 -2.97293 3.11882
rclavicle 1.04921e-014 3.97569e-015
rhumerus -40.7708 19.4763 -67.0968
rradius 28.1591
rwrist -81.6681
rhand -56.0095 -15.4269
rfingers 7.12502
rthumb -28.3453 -43.3014
lclavicle 1.04921e-014 3.97569e-015
lhumerus -408.251 -21.4251 429.329
lradius 19.4832
lwrist 49.8867
lhand -43.5954 23.8485
lfingers 7.12502
lthumb -16.4317 53.1726
rfemur 3.12969 2.98521 26.3054
rtibia 30.1621
rfoot -12.8391 -12.3499
rtoes 0.320492
lfemur 19.1227 -2.01593 -12.3066
ltibia 19.537
lfoot -1.43603 0.419015
ltoes -37.5374
79
root 1.97303 17.8497 0.088298 170.659 -9.07649 -177.847
lowerback 5.94551 -3.96851 1.88542
upperback 6.7047 -5.86879 0.372234
thorax 3.47831 -3.1286 -0.510984
lowerneck -8.93903 -5.81452 -1.69273
upperneck -6.55951 -6.71007 8.91079
head -0.155786 -2.98766 2.94523
rclavicle 5.51627e-015 2.98177e-016
rhumerus -39.4446 21.7055 -72.205
rradius 28.6774
rwrist -83.3678
rhand -55.2292 -16.8307
rfingers 7.12502
rthumb -27.5994 -44.8268
lclavicle 5.51627e-015 2.98177e-016
lhumerus -407.66 -22.9704 435.316
lradius 20.3988
lwrist 52.8163
lhand -43.8919 25.7662
lfingers 7.12502
lthumb -16.7171 55.0664
rfemur 3.46772 2.78834 26.1267
rtibia 30.0996
rfoot -13.0634 -12.0542
rtoes 0.856066
lfemur 19.215 -1.69278 -12.2984
ltibia 19.9515
lfoot -1.58733 0.288961
ltoes -37.913
